ffmpeg started on 2016-12-02 at 06:27:16
Report written to "Output/x264/results/ffmpeg/old_town_cross_2160p50slower8000k.log"
Command line:
Tools/ffmpeg/ffmpeg -benchmark -y -i Input/y4m/old_town_cross_2160p50.y4m -c:v libx264 -preset slower -b:v 8000k -an Output/x264/encoded/old_town_cross_2160p50slower8000k.mkv
ffmpeg version N-82227-gdb23fde Copyright (c) 2000-2016 the FFmpeg developers
  built with gcc 5.4.0 (Ubuntu 5.4.0-6ubuntu1~16.04.2) 20160609
  configuration: --prefix=/home/jaroslav/ffmpeg_build --pkg-config-flags=--static --extra-cflags=-I/home/jaroslav/ffmpeg_build/include --extra-ldflags=-L/home/jaroslav/ffmpeg_build/lib --bindir=/home/jaroslav/bin --enable-gpl --enable-libass --enable-libfdk-aac --enable-libfreetype --enable-libmp3lame --enable-libopus --enable-libtheora --enable-libvorbis --enable-libvpx --enable-libx264 --enable-libx265 --enable-nvenc --enable-libmfx --enable-libxvid --enable-libgsm --enable-libopencore-amrnb --enable-version3 --enable-nonfree
  libavutil      55. 35.100 / 55. 35.100
  libavcodec     57. 66.101 / 57. 66.101
  libavformat    57. 57.100 / 57. 57.100
  libavdevice    57.  2.100 / 57.  2.100
  libavfilter     6. 66.100 /  6. 66.100
  libswscale      4.  3.100 /  4.  3.100
  libswresample   2.  4.100 /  2.  4.100
  libpostproc    54.  2.100 / 54.  2.100
Input #0, yuv4mpegpipe, from 'Input/y4m/old_town_cross_2160p50.y4m':
  Duration: 00:00:10.00, start: 0.000000, bitrate: 4976642 kb/s
    Stream #0:0: Video: rawvideo (I420 / 0x30323449), yuv420p(progressive), 3840x2160, SAR 1:1 DAR 16:9, 50 fps, 50 tbr, 50 tbn, 50 tbc
[libx264 @ 0x2d9d120] using SAR=1/1
[libx264 @ 0x2d9d120] DPB size (8 frames, 259200 mbs) > level limit (5 frames, 184320 mbs)
[libx264 @ 0x2d9d120] using cpu capabilities: MMX2 SSE2Fast SSSE3 SSE4.2 AVX FMA3 AVX2 LZCNT BMI2
[libx264 @ 0x2d9d120] profile High, level 5.2
[libx264 @ 0x2d9d120] 264 - core 148 - H.264/MPEG-4 AVC codec - Copyleft 2003-2016 - http://www.videolan.org/x264.html - options: cabac=1 ref=8 deblock=1:0:0 analyse=0x3:0x133 me=umh subme=9 psy=1 psy_rd=1.00:0.00 mixed_ref=1 me_range=16 chroma_me=1 trellis=2 8x8dct=1 cqm=0 deadzone=21,11 fast_pskip=1 chroma_qp_offset=-2 threads=6 lookahead_threads=1 sliced_threads=0 nr=0 decimate=1 interlaced=0 bluray_compat=0 constrained_intra=0 bframes=3 b_pyramid=2 b_adapt=2 b_bias=0 direct=3 weightb=1 open_gop=0 weightp=2 keyint=250 keyint_min=25 scenecut=40 intra_refresh=0 rc_lookahead=60 rc=abr mbtree=1 bitrate=8000 ratetol=1.0 qcomp=0.60 qpmin=0 qpmax=69 qpstep=4 ip_ratio=1.40 aq=1:1.00
Output #0, matroska, to 'Output/x264/encoded/old_town_cross_2160p50slower8000k.mkv':
  Metadata:
    encoder         : Lavf57.57.100
    Stream #0:0: Video: h264 (libx264) (H264 / 0x34363248), yuv420p, 3840x2160 [SAR 1:1 DAR 16:9], q=-1--1, 8000 kb/s, 50 fps, 1k tbn, 50 tbc
    Metadata:
      encoder         : Lavc57.66.101 libx264
    Side data:
      cpb: bitrate max/min/avg: 0/0/8000000 buffer size: 0 vbv_delay: -1
Stream mapping:
  Stream #0:0 -> #0:0 (rawvideo (native) -> h264 (libx264))
Press [q] to stop, [?] for help
frame=   63 fps=0.0 q=0.0 size=       0kB time=00:00:00.00 bitrate=N/A speed=   0x    frame=   67 fps= 17 q=0.0 size=       0kB time=00:00:00.00 bitrate=N/A speed=   0x    frame=   72 fps= 15 q=36.0 size=       1kB time=-00:00:00.01 bitrate=N/A speed=N/A    frame=   77 fps= 14 q=45.0 size=       1kB time=00:00:00.08 bitrate=  72.7kbits/s speed=0.0144x    frame=   81 fps= 13 q=41.0 size=       1kB time=00:00:00.16 bitrate=  36.6kbits/s speed=0.0256x    frame=   85 fps= 12 q=39.0 size=       1kB time=00:00:00.24 bitrate=  24.4kbits/s speed=0.0348x    frame=   88 fps= 12 q=40.0 size=       1kB time=00:00:00.30 bitrate=  19.6kbits/s speed=0.0395x    frame=   93 fps= 11 q=37.0 size=       1kB time=00:00:00.40 bitrate=  14.7kbits/s speed=0.048x    frame=   96 fps= 11 q=37.0 size=       1kB time=00:00:00.46 bitrate=  12.8kbits/s speed=0.0505x    frame=  100 fps= 10 q=36.0 size=       1kB time=00:00:00.54 bitrate=  10.9kbits/s speed=0.0549x    frame=  103 fps=9.6 q=36.0 size=       1kB time=00:00:00.60 bitrate=   9.8kbits/s speed=0.0559x    frame=  107 fps=9.3 q=36.0 size=       1kB time=00:00:00.68 bitrate=   8.6kbits/s speed=0.059x    frame=  110 fps=9.0 q=36.0 size=       1kB time=00:00:00.74 bitrate=   7.9kbits/s speed=0.0607x    frame=  113 fps=8.8 q=36.0 size=       1kB time=00:00:00.80 bitrate=   7.4kbits/s speed=0.0624x    frame=  115 fps=8.6 q=35.0 size=       1kB time=00:00:00.84 bitrate=   7.0kbits/s speed=0.0628x    frame=  117 fps=8.4 q=36.0 size=       1kB time=00:00:00.88 bitrate=   6.7kbits/s speed=0.0629x    frame=  120 fps=8.3 q=35.0 size=       1kB time=00:00:00.94 bitrate=   6.3kbits/s speed=0.0647x    frame=  122 fps=8.0 q=35.0 size=       1kB time=00:00:00.98 bitrate=   6.0kbits/s speed=0.0642x    frame=  126 fps=7.8 q=35.0 size=       1kB time=00:00:01.06 bitrate=   5.5kbits/s speed=0.0655x    frame=  129 fps=7.5 q=35.0 size=       1kB time=00:00:01.12 bitrate=   5.3kbits/s speed=0.0652x    frame=  133 fps=7.5 q=35.0 size=       1kB time=00:00:01.20 bitrate=   4.9kbits/s speed=0.0675x    frame=  136 fps=7.3 q=35.0 size=       1kB time=00:00:01.26 bitrate=   4.7kbits/s speed=0.0678x    frame=  138 fps=7.1 q=35.0 size=       1kB time=00:00:01.30 bitrate=   4.5kbits/s speed=0.067x    frame=  141 fps=7.0 q=35.0 size=       1kB time=00:00:01.36 bitrate=   4.3kbits/s speed=0.0672x    frame=  145 fps=6.8 q=35.0 size=       1kB time=00:00:01.44 bitrate=   4.1kbits/s speed=0.0675x    frame=  149 fps=6.8 q=35.0 size=       1kB time=00:00:01.52 bitrate=   3.9kbits/s speed=0.0691x    frame=  151 fps=6.7 q=35.0 size=       1kB time=00:00:01.56 bitrate=   3.8kbits/s speed=0.069x    frame=  153 fps=6.6 q=35.0 size=       1kB time=00:00:01.60 bitrate=   3.7kbits/s speed=0.0689x    frame=  155 fps=6.5 q=35.0 size=       1kB time=00:00:01.64 bitrate=   3.6kbits/s speed=0.0684x    frame=  158 fps=6.4 q=35.0 size=       1kB time=00:00:01.70 bitrate=   3.5kbits/s speed=0.0694x    frame=  161 fps=6.4 q=35.0 size=       1kB time=00:00:01.76 bitrate=   3.3kbits/s speed=0.0699x    frame=  163 fps=6.3 q=35.0 size=       1kB time=00:00:01.80 bitrate=   3.3kbits/s speed=0.0694x    frame=  166 fps=6.2 q=35.0 size=       1kB time=00:00:01.86 bitrate=   3.2kbits/s speed=0.0699x    frame=  168 fps=6.1 q=35.0 size=       1kB time=00:00:01.90 bitrate=   3.1kbits/s speed=0.0692x    frame=  173 fps=6.1 q=35.0 size=       1kB time=00:00:02.00 bitrate=   2.9kbits/s speed=0.0702x    frame=  176 fps=6.0 q=35.0 size=       1kB time=00:00:02.06 bitrate=   2.9kbits/s speed=0.0707x    frame=  177 fps=6.0 q=35.0 size=       1kB time=00:00:02.08 bitrate=   2.8kbits/s speed=0.0701x    frame=  180 fps=5.9 q=35.0 size=       1kB time=00:00:02.14 bitrate=   2.8kbits/s speed=0.0704x    frame=  183 fps=5.9 q=35.0 size=       1kB time=00:00:02.20 bitrate=   2.7kbits/s speed=0.0705x    frame=  186 fps=5.8 q=34.0 size=       1kB time=00:00:02.26 bitrate=   2.6kbits/s speed=0.0708x    frame=  189 fps=5.8 q=34.0 size=       1kB time=00:00:02.32 bitrate=   2.5kbits/s speed=0.0709x    frame=  192 fps=5.7 q=34.0 size=       1kB time=00:00:02.38 bitrate=   2.5kbits/s speed=0.0706x    frame=  196 fps=5.7 q=34.0 size=       1kB time=00:00:02.46 bitrate=   2.4kbits/s speed=0.0716x    frame=  198 fps=5.6 q=34.0 size=       1kB time=00:00:02.50 bitrate=   2.4kbits/s speed=0.0709x    frame=  200 fps=5.6 q=34.0 size=       1kB time=00:00:02.54 bitrate=   2.3kbits/s speed=0.0708x    frame=  204 fps=5.6 q=34.0 size=       1kB time=00:00:02.62 bitrate=   2.2kbits/s speed=0.0719x    frame=  206 fps=5.5 q=34.0 size=       1kB time=00:00:02.66 bitrate=   2.2kbits/s speed=0.0709x    frame=  211 fps=5.5 q=34.0 size=       1kB time=00:00:02.76 bitrate=   2.1kbits/s speed=0.0723x    frame=  213 fps=5.5 q=34.0 size=       1kB time=00:00:02.80 bitrate=   2.1kbits/s speed=0.0722x    frame=  214 fps=5.4 q=34.0 size=       1kB time=00:00:02.82 bitrate=   2.1kbits/s speed=0.0715x    frame=  215 fps=5.4 q=34.0 size=       1kB time=00:00:02.84 bitrate=   2.1kbits/s speed=0.0711x    frame=  219 fps=5.4 q=34.0 size=       1kB time=00:00:02.92 bitrate=   2.0kbits/s speed=0.0719x    frame=  221 fps=5.4 q=34.0 size=       1kB time=00:00:02.96 bitrate=   2.0kbits/s speed=0.0719x    frame=  222 fps=5.3 q=34.0 size=       1kB time=00:00:02.98 bitrate=   2.0kbits/s speed=0.0714x    frame=  226 fps=5.3 q=34.0 size=       1kB time=00:00:03.06 bitrate=   1.9kbits/s speed=0.0722x    frame=  228 fps=5.3 q=34.0 size=       1kB time=00:00:03.10 bitrate=   1.9kbits/s speed=0.0715x    frame=  231 fps=5.3 q=34.0 size=       1kB time=00:00:03.16 bitrate=   1.9kbits/s speed=0.0719x    frame=  234 fps=5.2 q=34.0 size=       1kB time=00:00:03.22 bitrate=   1.8kbits/s speed=0.0718x    frame=  238 fps=5.2 q=34.0 size=       1kB time=00:00:03.30 bitrate=   1.8kbits/s speed=0.0728x    frame=  239 fps=5.2 q=34.0 size=       1kB time=00:00:03.32 bitrate=   1.8kbits/s speed=0.0724x    frame=  242 fps=5.2 q=34.0 size=       1kB time=00:00:03.38 bitrate=   1.7kbits/s speed=0.0725x    frame=  244 fps=5.2 q=34.0 size=       1kB time=00:00:03.42 bitrate=   1.7kbits/s speed=0.0723x    frame=  247 fps=5.2 q=34.0 size=       1kB time=00:00:03.48 bitrate=   1.7kbits/s speed=0.0726x    frame=  249 fps=5.1 q=34.0 size=       1kB time=00:00:03.52 bitrate=   1.7kbits/s speed=0.0725x    frame=  251 fps=5.1 q=34.0 size=       1kB time=00:00:03.56 bitrate=   1.7kbits/s speed=0.0726x    frame=  254 fps=5.1 q=34.0 size=       1kB time=00:00:03.62 bitrate=   1.6kbits/s speed=0.0725x    frame=  258 fps=5.1 q=34.0 size=       1kB time=00:00:03.70 bitrate=   1.6kbits/s speed=0.0729x    frame=  261 fps=5.1 q=34.0 size=       1kB time=00:00:03.76 bitrate=   1.6kbits/s speed=0.0728x    frame=  263 fps=5.0 q=34.0 size=       1kB time=00:00:03.80 bitrate=   1.5kbits/s speed=0.0728x    frame=  265 fps=5.0 q=34.0 size=       1kB time=00:00:03.84 bitrate=   1.5kbits/s speed=0.0728x    frame=  267 fps=5.0 q=34.0 size=       1kB time=00:00:03.88 bitrate=   1.5kbits/s speed=0.0728x    frame=  270 fps=5.0 q=34.0 size=       1kB time=00:00:03.94 bitrate=   1.5kbits/s speed=0.0729x    frame=  273 fps=5.0 q=34.0 size=       1kB time=00:00:04.00 bitrate=   1.5kbits/s speed=0.0733x    frame=  275 fps=4.9 q=34.0 size=       1kB time=00:00:04.04 bitrate=   1.5kbits/s speed=0.0727x    frame=  278 fps=5.0 q=34.0 size=       1kB time=00:00:04.10 bitrate=   1.4kbits/s speed=0.0731x    frame=  281 fps=4.9 q=34.0 size=       1kB time=00:00:04.16 bitrate=   1.4kbits/s speed=0.0726x    frame=  287 fps=4.9 q=34.0 size=       1kB time=00:00:04.28 bitrate=   1.4kbits/s speed=0.0734x    frame=  288 fps=4.9 q=34.0 size=       1kB time=00:00:04.30 bitrate=   1.4kbits/s speed=0.073x    frame=  291 fps=4.9 q=34.0 size=       1kB time=00:00:04.36 bitrate=   1.4kbits/s speed=0.0733x    frame=  294 fps=4.9 q=34.0 size=       1kB time=00:00:04.42 bitrate=   1.3kbits/s speed=0.0731x    frame=  297 fps=4.8 q=34.0 size=       1kB time=00:00:04.48 bitrate=   1.3kbits/s speed=0.0731x    frame=  300 fps=4.8 q=34.0 size=       1kB time=00:00:04.54 bitrate=   1.3kbits/s speed=0.0733x    frame=  302 fps=4.8 q=34.0 size=       1kB time=00:00:04.58 bitrate=   1.3kbits/s speed=0.073x    frame=  304 fps=4.8 q=34.0 size=       1kB time=00:00:04.62 bitrate=   1.3kbits/s speed=0.0731x    frame=  308 fps=4.8 q=34.0 size=       1kB time=00:00:04.70 bitrate=   1.3kbits/s speed=0.0737x    frame=  309 fps=4.8 q=34.0 size=       1kB time=00:00:04.72 bitrate=   1.2kbits/s speed=0.073x    frame=  312 fps=4.8 q=34.0 size=       1kB time=00:00:04.78 bitrate=   1.2kbits/s speed=0.073x    frame=  316 fps=4.8 q=35.0 size=       1kB time=00:00:04.86 bitrate=   1.2kbits/s speed=0.0735x    frame=  318 fps=4.7 q=35.0 size=       1kB time=00:00:04.90 bitrate=   1.2kbits/s speed=0.0731x    frame=  321 fps=4.7 q=35.0 size=    4609kB time=00:00:04.96 bitrate=7610.9kbits/s speed=0.0733x    frame=  324 fps=4.7 q=36.0 size=    4609kB time=00:00:05.02 bitrate=7520.0kbits/s speed=0.0734x    frame=  327 fps=4.7 q=35.0 size=    4609kB time=00:00:05.08 bitrate=7431.2kbits/s speed=0.0735x    frame=  331 fps=4.7 q=36.0 size=    4609kB time=00:00:05.16 bitrate=7316.0kbits/s speed=0.0738x    frame=  333 fps=4.7 q=36.0 size=    4609kB time=00:00:05.20 bitrate=7259.7kbits/s speed=0.0732x    frame=  336 fps=4.7 q=36.0 size=    4609kB time=00:00:05.26 bitrate=7176.9kbits/s speed=0.0735x    frame=  339 fps=4.7 q=36.0 size=    4609kB time=00:00:05.32 bitrate=7096.0kbits/s speed=0.0732x    frame=  343 fps=4.7 q=36.0 size=    4609kB time=00:00:05.40 bitrate=6990.9kbits/s speed=0.0736x    frame=  345 fps=4.7 q=36.0 size=    4609kB time=00:00:05.44 bitrate=6939.5kbits/s speed=0.0737x    frame=  347 fps=4.6 q=36.0 size=    4609kB time=00:00:05.48 bitrate=6888.9kbits/s speed=0.0731x    frame=  351 fps=4.6 q=36.0 size=    4609kB time=00:00:05.56 bitrate=6789.8kbits/s speed=0.0736x    frame=  354 fps=4.6 q=36.0 size=    4609kB time=00:00:05.62 bitrate=6717.3kbits/s speed=0.0732x    frame=  359 fps=4.6 q=36.0 size=    4609kB time=00:00:05.72 bitrate=6599.9kbits/s speed=0.0735x    frame=  360 fps=4.6 q=36.0 size=    4609kB time=00:00:05.74 bitrate=6576.9kbits/s speed=0.0732x    frame=  364 fps=4.6 q=36.0 size=    4609kB time=00:00:05.82 bitrate=6486.5kbits/s speed=0.0735x    frame=  366 fps=4.6 q=36.0 size=    4609kB time=00:00:05.86 bitrate=6442.2kbits/s speed=0.0733x    frame=  369 fps=4.6 q=36.0 size=    4609kB time=00:00:05.92 bitrate=6376.9kbits/s speed=0.0735x    frame=  372 fps=4.6 q=35.0 size=    4609kB time=00:00:05.98 bitrate=6313.0kbits/s speed=0.0734x    frame=  374 fps=4.6 q=36.0 size=    4609kB time=00:00:06.02 bitrate=6271.0kbits/s speed=0.0733x    frame=  377 fps=4.6 q=35.0 size=    4609kB time=00:00:06.08 bitrate=6209.2kbits/s speed=0.0735x    frame=  379 fps=4.6 q=35.0 size=    4609kB time=00:00:06.12 bitrate=6168.6kbits/s speed=0.0735x    frame=  381 fps=4.5 q=35.0 size=    4609kB time=00:00:06.16 bitrate=6128.5kbits/s speed=0.0733x    frame=  383 fps=4.5 q=35.0 size=    4609kB time=00:00:06.20 bitrate=6089.0kbits/s speed=0.0733x    frame=  387 fps=4.5 q=35.0 size=    4609kB time=00:00:06.28 bitrate=6011.4kbits/s speed=0.0735x    frame=  390 fps=4.5 q=35.0 size=    4609kB time=00:00:06.34 bitrate=5954.6kbits/s speed=0.0735x    frame=  391 fps=4.5 q=35.0 size=    4609kB time=00:00:06.36 bitrate=5935.8kbits/s speed=0.0732x    frame=  395 fps=4.5 q=35.0 size=    4609kB time=00:00:06.44 bitrate=5862.1kbits/s speed=0.0735x    frame=  398 fps=4.5 q=35.0 size=    4609kB time=00:00:06.50 bitrate=5808.0kbits/s speed=0.0735x    frame=  400 fps=4.5 q=35.0 size=    4609kB time=00:00:06.54 bitrate=5772.5kbits/s speed=0.0733x    frame=  404 fps=4.5 q=35.0 size=    4609kB time=00:00:06.62 bitrate=5702.7kbits/s speed=0.0738x    frame=  405 fps=4.5 q=35.0 size=    4609kB time=00:00:06.64 bitrate=5685.6kbits/s speed=0.0736x    frame=  407 fps=4.5 q=35.0 size=    4609kB time=00:00:06.68 bitrate=5651.5kbits/s speed=0.0735x    frame=  411 fps=4.5 q=35.0 size=    4609kB time=00:00:06.76 bitrate=5584.7kbits/s speed=0.0736x    frame=  414 fps=4.5 q=35.0 size=    4609kB time=00:00:06.82 bitrate=5535.5kbits/s speed=0.0734x    frame=  418 fps=4.5 q=35.0 size=    4609kB time=00:00:06.90 bitrate=5471.4kbits/s speed=0.0736x    frame=  420 fps=4.5 q=35.0 size=    4609kB time=00:00:06.94 bitrate=5439.8kbits/s speed=0.0736x    frame=  422 fps=4.4 q=35.0 size=    4609kB time=00:00:06.98 bitrate=5408.7kbits/s speed=0.0733x    frame=  426 fps=4.4 q=35.0 size=    4609kB time=00:00:07.06 bitrate=5347.4kbits/s speed=0.0733x    frame=  430 fps=4.4 q=35.0 size=    4609kB time=00:00:07.14 bitrate=5287.5kbits/s speed=0.0735x    frame=  434 fps=4.4 q=35.0 size=    4609kB time=00:00:07.22 bitrate=5228.9kbits/s speed=0.0733x    frame=  438 fps=4.4 q=35.0 size=    4609kB time=00:00:07.30 bitrate=5171.6kbits/s speed=0.0735x    frame=  441 fps=4.4 q=35.0 size=    4609kB time=00:00:07.36 bitrate=5129.5kbits/s speed=0.0735x    frame=  442 fps=4.4 q=35.0 size=    4609kB time=00:00:07.38 bitrate=5115.6kbits/s speed=0.0732x    frame=  446 fps=4.4 q=35.0 size=    4609kB time=00:00:07.46 bitrate=5060.7kbits/s speed=0.0735x    frame=  448 fps=4.4 q=35.0 size=    4609kB time=00:00:07.50 bitrate=5033.7kbits/s speed=0.0735x    frame=  449 fps=4.4 q=35.0 size=    4609kB time=00:00:07.52 bitrate=5020.3kbits/s speed=0.0732x    frame=  454 fps=4.4 q=35.0 size=    4609kB time=00:00:07.62 bitrate=4954.5kbits/s speed=0.0735x    frame=  457 fps=4.4 q=35.0 size=    4609kB time=00:00:07.68 bitrate=4915.8kbits/s speed=0.0732x    frame=  461 fps=4.4 q=35.0 size=    4609kB time=00:00:07.76 bitrate=4865.1kbits/s speed=0.0736x    frame=  463 fps=4.3 q=35.0 size=    4609kB time=00:00:07.80 bitrate=4840.1kbits/s speed=0.0733x    frame=  468 fps=4.4 q=35.0 size=    4609kB time=00:00:07.90 bitrate=4778.9kbits/s speed=0.0737x    frame=  470 fps=4.4 q=35.0 size=    4609kB time=00:00:07.94 bitrate=4754.8kbits/s speed=0.0737x    frame=  471 fps=4.3 q=35.0 size=    4609kB time=00:00:07.96 bitrate=4742.9kbits/s speed=0.0734x    frame=  475 fps=4.3 q=35.0 size=    4609kB time=00:00:08.04 bitrate=4695.7kbits/s speed=0.0735x    frame=  479 fps=4.3 q=35.0 size=    4609kB time=00:00:08.12 bitrate=4649.4kbits/s speed=0.0735x    frame=  482 fps=4.3 q=35.0 size=    4609kB time=00:00:08.18 bitrate=4615.3kbits/s speed=0.0736x    frame=  483 fps=4.3 q=35.0 size=    4609kB time=00:00:08.20 bitrate=4604.1kbits/s speed=0.0734x    frame=  487 fps=4.3 q=35.0 size=    4609kB time=00:00:08.28 bitrate=4559.6kbits/s speed=0.0736x    frame=  489 fps=4.3 q=35.0 size=    4609kB time=00:00:08.32 bitrate=4537.7kbits/s speed=0.0734x    frame=  492 fps=4.3 q=35.0 size=    4609kB time=00:00:08.38 bitrate=4505.2kbits/s speed=0.0736x    frame=  495 fps=4.3 q=35.0 size=    4609kB time=00:00:08.44 bitrate=4473.2kbits/s speed=0.0736x    frame=  497 fps=4.3 q=35.0 size=    4609kB time=00:00:08.48 bitrate=4452.1kbits/s speed=0.0735x    frame=  499 fps=4.3 q=35.0 size=    4609kB time=00:00:08.52 bitrate=4431.2kbits/s speed=0.0734x    frame=  500 fps=3.8 q=-1.0 Lsize=    9862kB time=00:00:09.94 bitrate=8127.2kbits/s speed=0.0747x    
video:9858kB audio:0kB subtitle:0kB other streams:0kB global headers:0kB muxing overhead: 0.044588%
bench: utime=515.240s
bench: maxrss=2618316kB
[libx264 @ 0x2d9d120] frame I:3     Avg QP:31.12  size:359454
[libx264 @ 0x2d9d120] frame P:138   Avg QP:33.06  size: 35647
[libx264 @ 0x2d9d120] frame B:359   Avg QP:35.13  size: 11410
[libx264 @ 0x2d9d120] consecutive B-frames:  1.0%  2.0% 23.4% 73.6%
[libx264 @ 0x2d9d120] mb I  I16..4: 29.9% 63.5%  6.6%
[libx264 @ 0x2d9d120] mb P  I16..4:  0.0%  0.1%  0.0%  P16..4: 33.6%  1.5%  5.1%  0.0%  0.0%    skip:59.6%
[libx264 @ 0x2d9d120] mb B  I16..4:  0.0%  0.0%  0.0%  B16..8: 43.6%  0.1%  0.0%  direct: 0.0%  skip:56.3%  L0:48.1% L1:51.9% BI: 0.0%
[libx264 @ 0x2d9d120] final ratefactor: 27.04
[libx264 @ 0x2d9d120] 8x8 transform intra:63.4% inter:72.0%
[libx264 @ 0x2d9d120] direct mvs  spatial:99.2% temporal:0.8%
[libx264 @ 0x2d9d120] coded y,uvDC,uvAC intra: 79.5% 64.3% 41.3% inter: 2.2% 2.9% 0.0%
[libx264 @ 0x2d9d120] i16 v,h,dc,p: 12% 24% 12% 52%
[libx264 @ 0x2d9d120] i8 v,h,dc,ddl,ddr,vr,hd,vl,hu:  4%  6%  1% 14% 20% 14% 20%  9% 12%
[libx264 @ 0x2d9d120] i4 v,h,dc,ddl,ddr,vr,hd,vl,hu:  3%  4%  1% 15% 19% 14% 20% 10% 15%
[libx264 @ 0x2d9d120] i8c dc,h,v,p: 33% 41% 16% 10%
[libx264 @ 0x2d9d120] Weighted P-Frames: Y:0.7% UV:0.0%
[libx264 @ 0x2d9d120] ref P L0: 61.3% 21.6%  9.8%  1.9%  1.8%  1.4%  1.7%  0.5%  0.0%
[libx264 @ 0x2d9d120] ref B L0: 81.8%  7.3%  6.2%  1.5%  1.4%  1.2%  0.5%
[libx264 @ 0x2d9d120] ref B L1: 96.6%  3.4%
[libx264 @ 0x2d9d120] kb/s:8075.09
